HIERARCHY
ROOT mixamorig1:Hips
{
	OFFSET -0.000023 99.754364 3.007874
	CHANNELS 6 Xposition Yposition Zposition Xrotation Yrotation Zrotation
	JOINT mixamorig1:Spine
	{
		OFFSET 0.000000 9.717224 -1.180208
		CHANNELS 3 Xrotation Yrotation Zrotation
		JOINT mixamorig1:Spine1
		{
			OFFSET 0.000000 11.336823 -1.376933
			CHANNELS 3 Xrotation Yrotation Zrotation
			JOINT mixamorig1:Spine2
			{
				OFFSET 0.000000 12.956345 -1.573654
				CHANNELS 3 Xrotation Yrotation Zrotation
				JOINT mixamorig1:Neck
				{
					OFFSET 0.000000 14.575974 -1.770438
					CHANNELS 3 Xrotation Yrotation Zrotation
					JOINT mixamorig1:Head
					{
						OFFSET 0.000000 6.720200 1.972157
						CHANNELS 3 Xrotation Yrotation Zrotation
						JOINT mixamorig1:HeadTop_End
						{
							OFFSET 0.000000 20.999847 6.162763
							CHANNELS 3 Xrotation Yrotation Zrotation
							End Site
							{
								OFFSET 0.000000 21.885452 -0.000001
							}
						}
					}
				}
				JOINT mixamorig1:LeftShoulder
				{
					OFFSET 6.140116 12.877853 -1.799545
					CHANNELS 3 Xrotation Yrotation Zrotation
					JOINT mixamorig1:LeftArm
					{
						OFFSET 12.545031 -3.431427 -0.058010
						CHANNELS 3 Xrotation Yrotation Zrotation
						JOINT mixamorig1:LeftForeArm
						{
							OFFSET 25.447281 -1.876373 -1.505625
							CHANNELS 3 Xrotation Yrotation Zrotation
							JOINT mixamorig1:LeftHand
							{
								OFFSET 23.367504 0.877640 0.971305
								CHANNELS 3 Xrotation Yrotation Zrotation
								JOINT mixamorig1:LeftHandThumb1
								{
									OFFSET 3.575478 -1.761887 3.039434
									CHANNELS 3 Xrotation Yrotation Zrotation
									JOINT mixamorig1:LeftHandThumb2
									{
										OFFSET 2.860405 -1.409454 2.431552
										CHANNELS 3 Xrotation Yrotation Zrotation
										JOINT mixamorig1:LeftHandThumb3
										{
											OFFSET 2.578941 -1.801514 1.750709
											CHANNELS 3 Xrotation Yrotation Zrotation
											JOINT mixamorig1:LeftHandThumb4
											{
												OFFSET 2.408989 -1.461151 1.064221
												CHANNELS 3 Xrotation Yrotation Zrotation
												End Site
												{
													OFFSET 2.176476 -1.503357 1.440013
												}
											}
										}
									}
								}
								JOINT mixamorig1:LeftHandIndex1
								{
									OFFSET 11.357018 -1.306473 4.439679
									CHANNELS 3 Xrotation Yrotation Zrotation
									JOINT mixamorig1:LeftHandIndex2
									{
										OFFSET 3.215240 -0.390930 0.624045
										CHANNELS 3 Xrotation Yrotation Zrotation
										JOINT mixamorig1:LeftHandIndex3
										{
											OFFSET 2.938980 -0.735489 0.560646
											CHANNELS 3 Xrotation Yrotation Zrotation
											JOINT mixamorig1:LeftHandIndex4
											{
												OFFSET 2.552437 -0.779205 0.483288
												CHANNELS 3 Xrotation Yrotation Zrotation
												End Site
												{
													OFFSET 2.555870 -0.777603 0.467434
												}
											}
										}
									}
								}
								JOINT mixamorig1:LeftHandMiddle1
								{
									OFFSET 12.195602 -0.657242 2.108765
									CHANNELS 3 Xrotation Yrotation Zrotation
									JOINT mixamorig1:LeftHandMiddle2
									{
										OFFSET 3.379944 -0.547394 0.236206
										CHANNELS 3 Xrotation Yrotation Zrotation
										JOINT mixamorig1:LeftHandMiddle3
										{
											OFFSET 3.043900 -0.829651 0.195068
											CHANNELS 3 Xrotation Yrotation Zrotation
											JOINT mixamorig1:LeftHandMiddle4
											{
												OFFSET 2.806625 -0.600723 0.188473
												CHANNELS 3 Xrotation Yrotation Zrotation
												End Site
												{
													OFFSET 2.806618 -0.600739 0.188510
												}
											}
										}
									}
								}
								JOINT mixamorig1:LeftHandRing1
								{
									OFFSET 12.563576 -0.458878 -0.154891
									CHANNELS 3 Xrotation Yrotation Zrotation
									JOINT mixamorig1:LeftHandRing2
									{
										OFFSET 2.596565 -0.829819 0.032336
										CHANNELS 3 Xrotation Yrotation Zrotation
										JOINT mixamorig1:LeftHandRing3
										{
											OFFSET 2.548286 -0.608398 0.044838
											CHANNELS 3 Xrotation Yrotation Zrotation
											JOINT mixamorig1:LeftHandRing4
											{
												OFFSET 2.167870 -0.507812 0.038965
												CHANNELS 3 Xrotation Yrotation Zrotation
												End Site
												{
													OFFSET 2.167732 -0.508163 0.042114
												}
											}
										}
									}
								}
								JOINT mixamorig1:LeftHandPinky1
								{
									OFFSET 11.341652 -0.310532 -2.253323
									CHANNELS 3 Xrotation Yrotation Zrotation
									JOINT mixamorig1:LeftHandPinky2
									{
										OFFSET 2.648827 -0.669128 -0.120024
										CHANNELS 3 Xrotation Yrotation Zrotation
										JOINT mixamorig1:LeftHandPinky3
										{
											OFFSET 2.075249 -0.703857 -0.105192
											CHANNELS 3 Xrotation Yrotation Zrotation
											JOINT mixamorig1:LeftHandPinky4
											{
												OFFSET 1.850784 -0.684036 -0.097376
												CHANNELS 3 Xrotation Yrotation Zrotation
												End Site
												{
													OFFSET 1.850731 -0.683411 -0.102854
												}
											}
										}
									}
								}
							}
						}
					}
				}
				JOINT mixamorig1:RightShoulder
				{
					OFFSET -6.140133 12.877823 -1.741388
					CHANNELS 3 Xrotation Yrotation Zrotation
					JOINT mixamorig1:RightArm
					{
						OFFSET -12.545002 -3.431366 0.058123
						CHANNELS 3 Xrotation Yrotation Zrotation
						JOINT mixamorig1:RightForeArm
						{
							OFFSET -25.447330 -1.876465 -1.671036
							CHANNELS 3 Xrotation Yrotation Zrotation
							JOINT mixamorig1:RightHand
							{
								OFFSET -23.367435 0.877640 0.912149
								CHANNELS 3 Xrotation Yrotation Zrotation
								JOINT mixamorig1:RightHandThumb1
								{
									OFFSET -3.655281 -1.787811 3.110017
									CHANNELS 3 Xrotation Yrotation Zrotation
									JOINT mixamorig1:RightHandThumb2
									{
										OFFSET -2.924309 -1.430252 2.488113
										CHANNELS 3 Xrotation Yrotation Zrotation
										JOINT mixamorig1:RightHandThumb3
										{
											OFFSET -2.528549 -1.776962 1.706924
											CHANNELS 3 Xrotation Yrotation Zrotation
											JOINT mixamorig1:RightHandThumb4
											{
												OFFSET -2.443375 -1.162323 1.073468
												CHANNELS 3 Xrotation Yrotation Zrotation
												End Site
												{
													OFFSET -2.204521 -1.202744 1.472025
												}
											}
										}
									}
								}
								JOINT mixamorig1:RightHandIndex1
								{
									OFFSET -11.888382 -1.247833 4.755188
									CHANNELS 3 Xrotation Yrotation Zrotation
									JOINT mixamorig1:RightHandIndex2
									{
										OFFSET -3.042244 -0.516434 0.442817
										CHANNELS 3 Xrotation Yrotation Zrotation
										JOINT mixamorig1:RightHandIndex3
										{
											OFFSET -2.738869 -0.708374 0.392164
											CHANNELS 3 Xrotation Yrotation Zrotation
											JOINT mixamorig1:RightHandIndex4
											{
												OFFSET -2.432571 -0.620773 0.348507
												CHANNELS 3 Xrotation Yrotation Zrotation
												End Site
												{
													OFFSET -2.433441 -0.620270 0.343348
												}
											}
										}
									}
								}
								JOINT mixamorig1:RightHandMiddle1
								{
									OFFSET -12.008347 -0.748550 2.098396
									CHANNELS 3 Xrotation Yrotation Zrotation
									JOINT mixamorig1:RightHandMiddle2
									{
										OFFSET -3.442291 -0.415817 0.287318
										CHANNELS 3 Xrotation Yrotation Zrotation
										JOINT mixamorig1:RightHandMiddle3
										{
											OFFSET -3.106178 -0.837677 0.240102
											CHANNELS 3 Xrotation Yrotation Zrotation
											JOINT mixamorig1:RightHandMiddle4
											{
												OFFSET -2.855728 -0.604996 0.227592
												CHANNELS 3 Xrotation Yrotation Zrotation
												End Site
												{
													OFFSET -2.855972 -0.604736 0.225131
												}
											}
										}
									}
								}
								JOINT mixamorig1:RightHandRing1
								{
									OFFSET -12.328026 -0.608994 -0.015787
									CHANNELS 3 Xrotation Yrotation Zrotation
									JOINT mixamorig1:RightHandRing2
									{
										OFFSET -2.763496 -0.569153 -0.029507
										CHANNELS 3 Xrotation Yrotation Zrotation
										JOINT mixamorig1:RightHandRing3
										{
											OFFSET -2.573975 -0.772354 -0.042469
											CHANNELS 3 Xrotation Yrotation Zrotation
											JOINT mixamorig1:RightHandRing4
											{
												OFFSET -2.323860 -0.456833 -0.023427
												CHANNELS 3 Xrotation Yrotation Zrotation
												End Site
												{
													OFFSET -2.323814 -0.457275 -0.019363
												}
											}
										}
									}
								}
								JOINT mixamorig1:RightHandPinky1
								{
									OFFSET -11.463135 -0.329407 -2.202621
									CHANNELS 3 Xrotation Yrotation Zrotation
									JOINT mixamorig1:RightHandPinky2
									{
										OFFSET -2.569016 -0.599854 -0.108848
										CHANNELS 3 Xrotation Yrotation Zrotation
										JOINT mixamorig1:RightHandPinky3
										{
											OFFSET -2.016190 -0.737000 -0.102787
											CHANNELS 3 Xrotation Yrotation Zrotation
											JOINT mixamorig1:RightHandPinky4
											{
												OFFSET -1.796242 -0.576553 -0.085258
												CHANNELS 3 Xrotation Yrotation Zrotation
												End Site
												{
													OFFSET -1.796211 -0.576279 -0.087722
												}
											}
										}
									}
								}
							}
						}
					}
				}
			}
		}
	}
	JOINT mixamorig1:LeftUpLeg
	{
		OFFSET 8.078197 -5.402374 -0.535866
		CHANNELS 3 Xrotation Yrotation Zrotation
		JOINT mixamorig1:LeftLeg
		{
			OFFSET 3.743073 -42.540520 -2.695462
			CHANNELS 3 Xrotation Yrotation Zrotation
			JOINT mixamorig1:LeftFoot
			{
				OFFSET 3.359008 -41.940849 -2.882249
				CHANNELS 3 Xrotation Yrotation Zrotation
				JOINT mixamorig1:LeftToeBase
				{
					OFFSET 1.133368 -9.116439 13.321875
					CHANNELS 3 Xrotation Yrotation Zrotation
					JOINT mixamorig1:LeftToe_End
					{
						OFFSET 0.591574 -0.054443 6.177378
						CHANNELS 3 Xrotation Yrotation Zrotation
						End Site
						{
							OFFSET 0.591574 -0.054443 6.177376
						}
					}
				}
			}
		}
	}
	JOINT mixamorig1:RightUpLeg
	{
		OFFSET -8.078202 -5.402405 -0.751774
		CHANNELS 3 Xrotation Yrotation Zrotation
		JOINT mixamorig1:RightLeg
		{
			OFFSET -3.743069 -42.540482 -2.464520
			CHANNELS 3 Xrotation Yrotation Zrotation
			JOINT mixamorig1:RightFoot
			{
				OFFSET -3.359002 -41.940781 -2.968978
				CHANNELS 3 Xrotation Yrotation Zrotation
				JOINT mixamorig1:RightToeBase
				{
					OFFSET -1.133408 -9.116800 13.416487
					CHANNELS 3 Xrotation Yrotation Zrotation
					JOINT mixamorig1:RightToe_End
					{
						OFFSET -0.591589 -0.054615 6.151405
						CHANNELS 3 Xrotation Yrotation Zrotation
						End Site
						{
							OFFSET -0.591589 -0.054615 6.151402
						}
					}
				}
			}
		}
	}
}
MOTION
Frames: 4
Frame Time: 0.033333
15.323025 101.904350 1.275194 0.000160 -1.556952 -5.123987 -3.339872 0.034835 -1.194852 0.000091 -4.732528 0.000001 0.000001 -0.000000 -0.000000 21.893915 -20.237535 11.742873 -7.433318 0.000003 0.000007 -0.000001 -0.000002 -0.000001 -0.000681 0.000103 3.458545 2.744856 3.755575 -72.298454 -4.935640 -23.654475 -25.215098 -0.000001 0.000000 -0.000001 -0.000006 0.000001 0.000001 -0.000003 -0.000000 0.000001 -0.000001 -0.000001 -0.000003 0.000001 -0.000005 0.000001 -0.000000 -0.000001 0.000002 0.000001 0.000002 -0.000001 0.000001 0.000001 -0.000002 -0.000001 -0.000005 -0.000001 0.000000 0.000002 0.000002 0.000000 0.000000 0.000003 0.000001 -0.000002 -0.000001 0.000001 -0.000003 0.000001 0.000000 0.000000 0.000003 0.000000 0.000000 -0.000000 -0.000001 0.000004 0.000002 0.000000 0.000000 -0.000001 -0.000001 0.000000 0.000002 -0.000001 0.000000 0.000001 0.000000 0.000002 0.000001 -0.000001 -0.000000 0.000004 -0.000835 -0.000276 3.460092 12.989297 -15.659313 79.242666 -2.417405 26.859936 10.850202 -0.000002 -0.000001 -0.000001 -0.000001 -0.000003 -0.000001 0.000004 0.000005 0.000001 -0.000000 0.000001 0.000001 -0.000004 -0.000002 0.000002 -0.000002 0.000002 0.000001 0.000000 0.000001 0.000001 -0.000001 0.000001 -0.000000 -0.000002 -0.000001 -0.000000 -0.000003 0.000002 0.000001 -0.000004 0.000002 0.000002 0.000002 -0.000002 -0.000000 -0.000001 -0.000003 0.000002 -0.000003 0.000000 0.000000 0.000002 0.000001 0.000005 -0.000001 0.000003 0.000001 -0.000001 0.000003 -0.000000 -0.000003 0.000001 -0.000003 0.000001 -0.000003 0.000002 -0.000003 0.000001 0.000000 0.000001 -0.000001 -0.000004 0.929429 0.097625 3.815987 -4.319871 0.290741 -5.261959 26.629852 -6.079509 -1.038137 0.000003 -0.000001 -0.000001 -0.000002 -0.000000 0.000001 -8.455946 -0.172918 3.066728 9.344501 0.540210 8.402839 13.990487 -29.693602 -8.696313 -0.000001 0.000002 0.000001 -0.000000 -0.000001 0.000001 
15.288507 102.235992 0.565430 0.000163 -2.075932 -5.830916 -2.513951 0.023822 -1.085754 0.000054 -4.159378 0.000003 0.000000 0.000000 0.000002 21.015409 -20.467026 10.872754 -7.169895 -0.000009 0.000000 -0.000001 0.000003 -0.000001 -0.000684 0.000203 2.847140 1.691637 2.333117 -71.857210 -4.410256 -22.743029 -23.596082 -0.000000 0.000004 -0.000001 -0.000002 -0.000004 -0.000001 -0.000004 0.000001 0.000003 0.000003 -0.000001 -0.000003 -0.000007 -0.000002 0.000000 0.000004 0.000000 -0.000001 -0.000002 0.000003 -0.000002 0.000001 0.000005 0.000002 -0.000000 -0.000001 -0.000001 0.000002 0.000003 0.000002 0.000000 0.000001 0.000005 -0.000000 -0.000003 0.000000 -0.000002 0.000001 -0.000001 0.000003 0.000002 0.000001 -0.000000 0.000001 -0.000000 0.000000 0.000001 0.000003 0.000000 0.000001 0.000001 0.000002 0.000001 -0.000002 -0.000000 0.000001 -0.000004 0.000000 -0.000001 0.000001 -0.000001 -0.000001 0.000006 -0.000843 -0.000257 2.848696 12.546769 -14.885252 80.164264 -2.373148 27.081702 10.555271 -0.000000 -0.000003 -0.000000 0.000003 -0.000003 0.000001 -0.000001 0.000001 -0.000002 -0.000003 0.000000 -0.000000 -0.000003 0.000000 0.000002 -0.000000 0.000002 0.000001 0.000000 0.000001 0.000001 0.000000 0.000004 -0.000001 -0.000003 -0.000001 -0.000000 0.000001 0.000001 0.000001 0.000001 0.000000 -0.000002 -0.000000 0.000001 -0.000001 -0.000002 0.000002 0.000002 0.000000 0.000002 -0.000001 -0.000001 -0.000000 0.000001 0.000000 -0.000001 -0.000003 0.000000 0.000002 0.000000 -0.000002 0.000003 -0.000001 0.000000 0.000000 0.000002 -0.000001 0.000002 0.000000 0.000000 0.000001 -0.000002 0.998551 0.119187 4.552019 -5.631772 0.351797 -5.269991 28.467332 -5.857710 -0.903696 0.000001 -0.000001 -0.000000 -0.000003 0.000001 -0.000000 -8.910737 -0.233656 3.869902 7.674978 0.386038 7.778108 16.461485 -29.570713 -7.960901 -0.000000 0.000002 -0.000001 -0.000001 0.000001 -0.000000 
15.261415 102.720413 -0.683214 0.000168 -2.024451 -6.588316 -1.009838 0.007986 -0.906282 0.000074 -4.667477 0.000002 0.000000 0.000000 0.000001 19.423473 -23.011414 10.261133 -5.720067 0.000016 -0.000002 0.000000 -0.000003 0.000001 -0.000682 0.000083 1.961039 0.379310 0.528339 -71.226688 -3.647106 -21.256510 -21.117587 -0.000000 0.000002 -0.000000 -0.000004 -0.000006 -0.000003 -0.000001 0.000007 0.000004 0.000003 -0.000001 -0.000002 0.000001 0.000000 -0.000001 0.000000 -0.000001 0.000001 0.000001 -0.000000 -0.000000 -0.000000 -0.000001 0.000001 -0.000003 -0.000001 0.000001 0.000001 -0.000004 0.000002 -0.000002 -0.000003 0.000005 0.000000 0.000003 -0.000002 0.000004 -0.000000 -0.000001 -0.000001 -0.000001 0.000003 -0.000000 -0.000001 -0.000002 -0.000002 -0.000001 -0.000000 -0.000000 0.000002 0.000002 0.000000 -0.000003 -0.000001 0.000001 0.000005 -0.000004 -0.000001 -0.000000 0.000001 -0.000000 -0.000000 0.000004 -0.000845 -0.000245 1.962625 11.991270 -14.142381 80.509748 -2.592397 27.126713 11.502756 -0.000000 0.000000 -0.000000 0.000003 0.000001 0.000001 0.000006 0.000005 0.000001 0.000002 -0.000007 -0.000003 -0.000002 -0.000001 0.000002 0.000003 0.000002 0.000001 -0.000000 0.000000 0.000002 0.000002 0.000001 -0.000001 -0.000000 0.000001 -0.000001 0.000001 0.000002 -0.000000 0.000001 -0.000001 -0.000000 -0.000002 -0.000000 0.000000 -0.000001 0.000000 0.000002 0.000000 0.000002 -0.000002 0.000001 -0.000000 0.000001 -0.000002 -0.000001 -0.000002 -0.000002 0.000001 0.000000 0.000002 0.000003 -0.000000 0.000000 -0.000001 0.000002 -0.000003 -0.000001 0.000002 -0.000001 -0.000001 0.000001 0.795507 0.134471 5.504827 -7.386461 0.457023 -5.562063 31.614029 -6.475578 -0.817746 0.000001 -0.000001 -0.000002 -0.000001 0.000001 0.000001 -9.398762 -0.296845 4.589878 5.330427 0.206586 7.098652 29.867697 -36.359341 -5.329102 -0.000003 -0.000001 0.000000 0.000001 -0.000003 0.000001 
15.210742 103.052940 -1.558023 0.000162 -0.718010 -6.895215 -0.025525 0.000248 -1.126452 0.000050 -5.962837 0.000006 0.000000 0.000000 0.000001 18.278129 -24.261652 9.431674 -5.028638 0.000013 -0.000001 0.000000 0.000001 0.000001 -0.000676 0.000069 1.417245 -1.070902 -1.499885 -71.096013 -2.801424 -18.491129 -19.042185 -0.000001 0.000002 0.000001 -0.000003 -0.000001 -0.000000 -0.000004 0.000000 0.000004 0.000004 0.000000 -0.000004 -0.000000 -0.000002 -0.000002 0.000003 -0.000001 -0.000001 0.000000 -0.000000 0.000001 -0.000000 0.000000 -0.000002 0.000000 0.000002 -0.000000 0.000000 -0.000000 0.000001 -0.000001 -0.000002 0.000005 -0.000000 -0.000001 -0.000002 -0.000001 0.000001 0.000002 0.000001 0.000001 0.000001 0.000000 -0.000000 0.000001 -0.000000 -0.000002 0.000001 -0.000000 -0.000000 0.000001 0.000001 -0.000000 0.000001 -0.000000 -0.000003 -0.000004 -0.000002 0.000002 0.000001 -0.000000 0.000000 0.000004 -0.000848 -0.000236 1.418814 11.107042 -12.936673 81.235176 -2.300436 26.445420 10.509233 -0.000000 -0.000000 0.000001 0.000001 -0.000006 -0.000001 0.000004 0.000002 -0.000004 0.000001 -0.000002 -0.000001 -0.000000 -0.000004 -0.000003 0.000000 -0.000001 -0.000001 0.000001 0.000002 0.000002 0.000001 0.000001 -0.000000 -0.000000 0.000001 0.000001 0.000001 -0.000003 -0.000002 -0.000000 0.000003 -0.000000 -0.000000 0.000004 -0.000002 -0.000002 0.000000 0.000002 0.000001 -0.000003 -0.000001 0.000003 0.000002 -0.000001 0.000003 -0.000002 -0.000002 -0.000000 -0.000000 -0.000002 0.000001 -0.000001 -0.000004 -0.000004 0.000002 0.000000 0.000001 -0.000001 -0.000001 0.000001 0.000001 -0.000002 0.829562 0.153523 6.208251 -8.219467 0.565794 -6.320494 34.269043 -7.603940 -0.781939 -0.000001 -0.000001 0.000000 -0.000002 -0.000001 -0.000001 -8.513962 -0.267246 4.695244 2.288440 0.017373 6.917859 30.210569 -36.530065 -5.240730 -0.000002 0.000006 -0.000003 -0.000001 0.000002 -0.000001 
